<?xml version="1.0" encoding="UTF-8" standalone="no"?>
<svg
   xmlns:dc="http://purl.org/dc/elements/1.1/"
   xmlns:cc="http://creativecommons.org/ns#"
   xmlns:rdf="http://www.w3.org/1999/02/22-rdf-syntax-ns#"
   xmlns:svg="http://www.w3.org/2000/svg"
   xmlns="http://www.w3.org/2000/svg"
   viewBox="0 0 283.86667 283.86667"
   height="283.86667"
   width="283.86667"
   xml:space="preserve"
   id="svg2"
   version="1.1"><metadata
     id="metadata8"><rdf:RDF><cc:Work
         rdf:about=""><dc:format>image/svg+xml</dc:format><dc:type
           rdf:resource="http://purl.org/dc/dcmitype/StillImage" /></cc:Work></rdf:RDF></metadata><defs
     id="defs6"><clipPath
       id="clipPath20"
       clipPathUnits="userSpaceOnUse"><path
         id="path18"
         d="m 2057.04,827.219 c -30.57,66.222 -65.8,96.383 -27.86,160.84 94.25,160.421 131.79,324.761 68.48,462.581 -42.37,91.96 -121.34,157.72 -222.58,195.86 -23.76,8.91 -60.52,43.35 -65.04,116.31 -0.72,38.35 -7.54,75.49 -20.86,111.09 -100.85,266.5 -532.27,335.22 -963.481,153.69 -417.664,-176.14 -682.656,-522.76 -606.566,-786.55 16.254,-56.37 1.148,-109.96 -26.914,-141.71 C 25.6094,910.461 -47.3633,691.73 32.3477,518.738 85.7461,402.961 195.309,318.57 338.168,298.852 418.879,287.609 448.844,266.922 471.676,193.719 536.566,-13.5313 859.945,-47.3906 1158.21,80.5313 c 66.39,28.4377 78.01,4.4179 104.92,-8.9219 141.87,-70.21877 460.44,-99.8477 728.3,-37.7305 0,0 -114.38,45.2617 -201.67,149.6411 -33.48,35.23 -9.67,83.589 8.7,96.16 221.79,150 335.81,379.531 258.58,547.539 z" /></clipPath><linearGradient
       id="linearGradient26"
       spreadMethod="pad"
       gradientTransform="matrix(-71.9158,-1870.06,-1870.06,71.9158,1102.45,1973.27)"
       gradientUnits="userSpaceOnUse"
       y2="0"
       x2="1"
       y1="0"
       x1="0"><stop
         id="stop22"
         offset="0"
         style="stop-opacity:1;stop-color:#74b52d" /><stop
         id="stop24"
         offset="1"
         style="stop-opacity:1;stop-color:#489b37" /></linearGradient><clipPath
       id="clipPath36"
       clipPathUnits="userSpaceOnUse"><path
         id="path34"
         d="m 260.559,1343.61 c 3.664,224.69 240.769,471.23 586.429,616.98 150.985,63.51 306.372,97.18 449.622,97.18 224.33,0 371.96,-65.02 424.22,-202.83 11.04,-29.6 16.85,-60.39 17.62,-95.24 5.61,-95.38 74.72,-147.87 117.3,-163.71 90.96,-34.28 157.54,-92.35 192.4,-167.79 12.57,-27.46 19.92,-55.95 23.59,-84.59 0,0 3.09,-51.32 8.72,-49.95 12.37,3.07 9.52,49.95 9.52,49.95 -3.72,31.15 -11.66,62.1 -25.41,91.92 -36.75,80.16 -106.81,141.3 -202.43,177.29 -37.59,13.95 -83.22,61.13 -88.23,147.89 -0.82,36.16 -7.2,69.46 -18.81,100.64 -54.96,144.93 -226.25,231.69 -458.49,231.69 -145.54,0 -303.473,-34.12 -456.782,-98.72 -351.859,-148.27 -593.226,-418.86 -597.484,-650.71 0,0 1.523,-38.32 7.75,-38.69 6.219,-0.42 10.465,38.69 10.465,38.69 z" /></clipPath><linearGradient
       id="linearGradient42"
       spreadMethod="pad"
       gradientTransform="matrix(-3.49e-5,-799.399,-799.399,3.49e-5,1166.3,2093.03)"
       gradientUnits="userSpaceOnUse"
       y2="0"
       x2="1"
       y1="0"
       x1="0"><stop
         id="stop38"
         offset="0"
         style="stop-opacity:1;stop-color:#aad178" /><stop
         id="stop40"
         offset="1"
         style="stop-opacity:1;stop-color:#70b32e" /></linearGradient><linearGradient
       id="linearGradient52"
       spreadMethod="pad"
       gradientTransform="matrix(-5.06e-5,-1158.32,-1158.32,5.06e-5,1095.02,1450.88)"
       gradientUnits="userSpaceOnUse"
       y2="0"
       x2="1"
       y1="0"
       x1="0"><stop
         id="stop48"
         offset="0"
         style="stop-opacity:1;stop-color:#74b52d" /><stop
         id="stop50"
         offset="1"
         style="stop-opacity:1;stop-color:#489b37" /></linearGradient><linearGradient
       id="linearGradient60"
       spreadMethod="pad"
       gradientTransform="matrix(-5.06e-5,-1158.45,-1158.45,5.06e-5,1095.01,1450.91)"
       gradientUnits="userSpaceOnUse"
       y2="0"
       x2="1"
       y1="0"
       x1="0"><stop
         id="stop56"
         offset="0"
         style="stop-opacity:1;stop-color:#74b52d" /><stop
         id="stop58"
         offset="1"
         style="stop-opacity:1;stop-color:#489b37" /></linearGradient></defs><g
     transform="matrix(1.3333333,0,0,-1.3333333,0,283.86667)"
     id="g10"><g
       transform="scale(0.1)"
       id="g12"><g
         id="g14"><g
           clip-path="url(#clipPath20)"
           id="g16"><path
             id="path28"
             style="fill:url(#linearGradient26);fill-opacity:1;fill-rule:nonzero;stroke:none"
             d="m 2057.04,827.219 c -30.57,66.222 -65.8,96.383 -27.86,160.84 94.25,160.421 131.79,324.761 68.48,462.581 -42.37,91.96 -121.34,157.72 -222.58,195.86 -23.76,8.91 -60.52,43.35 -65.04,116.31 -0.72,38.35 -7.54,75.49 -20.86,111.09 -100.85,266.5 -532.27,335.22 -963.481,153.69 -417.664,-176.14 -682.656,-522.76 -606.566,-786.55 16.254,-56.37 1.148,-109.96 -26.914,-141.71 C 25.6094,910.461 -47.3633,691.73 32.3477,518.738 85.7461,402.961 195.309,318.57 338.168,298.852 418.879,287.609 448.844,266.922 471.676,193.719 536.566,-13.5313 859.945,-47.3906 1158.21,80.5313 c 66.39,28.4377 78.01,4.4179 104.92,-8.9219 141.87,-70.21877 460.44,-99.8477 728.3,-37.7305 0,0 -114.38,45.2617 -201.67,149.6411 -33.48,35.23 -9.67,83.589 8.7,96.16 221.79,150 335.81,379.531 258.58,547.539" /></g></g><g
         id="g30"><g
           clip-path="url(#clipPath36)"
           id="g32"><path
             id="path44"
             style="fill:url(#linearGradient42);fill-opacity:1;fill-rule:nonzero;stroke:none"
             d="m 260.559,1343.61 c 3.664,224.69 240.769,471.23 586.429,616.98 150.985,63.51 306.372,97.18 449.622,97.18 224.33,0 371.96,-65.02 424.22,-202.83 11.04,-29.6 16.85,-60.39 17.62,-95.24 5.61,-95.38 74.72,-147.87 117.3,-163.71 90.96,-34.28 157.54,-92.35 192.4,-167.79 12.57,-27.46 19.92,-55.95 23.59,-84.59 0,0 3.09,-51.32 8.72,-49.95 12.37,3.07 9.52,49.95 9.52,49.95 -3.72,31.15 -11.66,62.1 -25.41,91.92 -36.75,80.16 -106.81,141.3 -202.43,177.29 -37.59,13.95 -83.22,61.13 -88.23,147.89 -0.82,36.16 -7.2,69.46 -18.81,100.64 -54.96,144.93 -226.25,231.69 -458.49,231.69 -145.54,0 -303.473,-34.12 -456.782,-98.72 -351.859,-148.27 -593.226,-418.86 -597.484,-650.71 0,0 1.523,-38.32 7.75,-38.69 6.219,-0.42 10.465,38.69 10.465,38.69" /></g></g><path
         id="path46"
         style="fill:#ffffff;fill-opacity:1;fill-rule:evenodd;stroke:none"
         d="m 630.355,1345.96 c -30.328,-117.01 -70.082,-473.101 6.54,-679.511 101.218,-272.57 333.964,-320.058 509.815,-309.687 232.6,13.668 418.95,134.449 444.84,364.027 21.87,194.25 -93.6,241.512 -93.6,283.301 0,48.38 103.34,62.81 109.77,293.54 7.69,277 -246.52,437.34 -534.39,437.34 -233.935,0 -382.564,-156.01 -442.975,-389.01" /><path
         id="path54"
         style="fill:url(#linearGradient52);fill-opacity:1;fill-rule:evenodd;stroke:none"
         d="m 1209.07,1283.81 c 0,-62.99 -51.07,-114.04 -114.05,-114.04 -63,0 -114.051,51.05 -114.051,114.04 0,62.99 51.051,114.04 114.051,114.04 62.98,0 114.05,-51.05 114.05,-114.04" /><path
         id="path62"
         style="fill:url(#linearGradient60);fill-opacity:1;fill-rule:evenodd;stroke:none"
         d="m 1212.87,805.02 c 0,-65.09 -52.76,-117.848 -117.85,-117.848 -65.1,0 -117.856,52.758 -117.856,117.848 0,65.109 52.756,117.871 117.856,117.871 65.09,0 117.85,-52.762 117.85,-117.871" /></g></g></svg>